<svg width="36" height="37" viewBox="0 0 36 37" fill="none" xmlns="http://www.w3.org/2000/svg">
<path d="M12.002 29C13.6588 29 15.002 27.6569 15.002 26C15.002 24.3431 13.6588 23 12.002 23C10.3451 23 9.00195 24.3431 9.00195 26C9.00195 27.6569 10.3451 29 12.002 29Z" stroke="black" stroke-miterlimit="1.5" stroke-linecap="round" stroke-linejoin="round"/>
<path d="M27.002 29C28.6588 29 30.002 27.6569 30.002 26C30.002 24.3431 28.6588 23 27.002 23C25.3451 23 24.002 24.3431 24.002 26C24.002 27.6569 25.3451 29 27.002 29Z" stroke="black" stroke-miterlimit="1.5" stroke-linecap="round" stroke-linejoin="round"/>
<path d="M15.077 26H22.5019V10.1C22.5019 9.76863 22.2333 9.5 21.9019 9.5H1.50195" stroke="black" stroke-linecap="round"/>
<path d="M8.47695 26.0007H5.10195C4.77058 26.0007 4.50195 25.7321 4.50195 25.4007V17.7507" stroke="black" stroke-linecap="round"/>
<path d="M3.00195 14L9.00195 14" stroke="black" stroke-linecap="round" stroke-linejoin="round"/>
<path d="M22.502 14H31.112C31.3491 14 31.564 14.1396 31.6603 14.3563L34.4502 20.6336C34.4843 20.7104 34.502 20.7934 34.502 20.8773V25.4C34.502 25.7314 34.2333 26 33.902 26H30.752" stroke="black" stroke-linecap="round"/>
<path d="M22.502 25.9993H24.002" stroke="black" stroke-linecap="round"/>
</svg>
