<svg width="36" height="37" viewBox="0 0 36 37" fill="none" xmlns="http://www.w3.org/2000/svg">
<path d="M4.5 11.001L18 17.001M31.5 11.001L18 17.001M18 33.501V17.001" stroke="black" stroke-linejoin="round"/>
<path d="M4.5 27.1101V11.3899C4.5 11.1528 4.63964 10.9379 4.85632 10.8416L17.7563 5.1083C17.9115 5.03935 18.0885 5.03935 18.2437 5.1083L31.1437 10.8416C31.3604 10.9379 31.5 11.1528 31.5 11.3899V27.1101C31.5 27.3472 31.3604 27.5621 31.1437 27.6584L18.2437 33.3917C18.0885 33.4606 17.9115 33.4606 17.7563 33.3917L4.85632 27.6584C4.63964 27.5621 4.5 27.3472 4.5 27.1101Z" stroke="black" stroke-linecap="round" stroke-linejoin="round"/>
<path d="M11.25 7.99896L24.3937 13.8406C24.6104 13.9369 24.75 14.1518 24.75 14.3889V19.999" stroke="black" stroke-linecap="round" stroke-linejoin="round"/>
</svg>
