<svg width="25" height="25" viewBox="0 0 25 25" fill="none" xmlns="http://www.w3.org/2000/svg">
<path d="M11.7143 10.3889H16L15.5238 12.5H11.7143V22H9.80952V12.5H6V10.3889H9.80952V8.41289C9.80952 6.53083 9.98667 5.84789 10.3181 5.15967C10.6429 4.47969 11.1446 3.92362 11.7581 3.56367C12.379 3.19633 12.9952 3 14.6933 3C15.1905 3 15.6267 3.05278 16 3.15833V5.11111H14.6933C13.4324 5.11111 13.0486 5.19344 12.6571 5.42567C12.3676 5.59667 12.1524 5.83522 11.9981 6.15611C11.7886 6.58994 11.7143 7.01533 11.7143 8.41289V10.3889Z" fill="white" stroke="white" stroke-width="0.8"/>
</svg>
