<svg width="25" height="25" viewBox="0 0 25 25" fill="none" xmlns="http://www.w3.org/2000/svg">
<path d="M16.505 7.595C16.327 7.595 16.153 7.64778 16.005 7.74668C15.857 7.84557 15.7416 7.98613 15.6735 8.15058C15.6054 8.31504 15.5876 8.496 15.6223 8.67058C15.657 8.84516 15.7427 9.00553 15.8686 9.1314C15.9945 9.25726 16.1548 9.34298 16.3294 9.37771C16.504 9.41243 16.685 9.39461 16.8494 9.32649C17.0139 9.25837 17.1544 9.14302 17.2533 8.99501C17.3522 8.84701 17.405 8.673 17.405 8.495C17.405 8.2563 17.3102 8.02739 17.1414 7.8586C16.9726 7.68982 16.7437 7.595 16.505 7.595ZM19.955 9.41C19.9404 8.78772 19.8239 8.17205 19.61 7.5875C19.4193 7.08735 19.1225 6.63446 18.74 6.26C18.3686 5.87557 17.9147 5.58063 17.4125 5.3975C16.8295 5.17712 16.2131 5.05791 15.59 5.045C14.795 5 14.54 5 12.5 5C10.46 5 10.205 5 9.41 5.045C8.78686 5.05791 8.17051 5.17712 7.5875 5.3975C7.08626 5.58249 6.6327 5.87717 6.26 6.26C5.87557 6.63138 5.58063 7.08533 5.3975 7.5875C5.17712 8.17051 5.05791 8.78686 5.045 9.41C5 10.205 5 10.46 5 12.5C5 14.54 5 14.795 5.045 15.59C5.05791 16.2131 5.17712 16.8295 5.3975 17.4125C5.58063 17.9147 5.87557 18.3686 6.26 18.74C6.6327 19.1228 7.08626 19.4175 7.5875 19.6025C8.17051 19.8229 8.78686 19.9421 9.41 19.955C10.205 20 10.46 20 12.5 20C14.54 20 14.795 20 15.59 19.955C16.2131 19.9421 16.8295 19.8229 17.4125 19.6025C17.9147 19.4194 18.3686 19.1244 18.74 18.74C19.1242 18.3669 19.4213 17.9136 19.61 17.4125C19.8239 16.8279 19.9404 16.2123 19.955 15.59C19.955 14.795 20 14.54 20 12.5C20 10.46 20 10.205 19.955 9.41ZM18.605 15.5C18.5995 15.9761 18.5133 16.4478 18.35 16.895C18.2302 17.2214 18.0379 17.5163 17.7875 17.7575C17.5442 18.0054 17.2499 18.1973 16.925 18.32C16.4778 18.4833 16.0061 18.5695 15.53 18.575C14.78 18.6125 14.5025 18.62 12.53 18.62C10.5575 18.62 10.28 18.62 9.53 18.575C9.03567 18.5843 8.54345 18.5081 8.075 18.35C7.76434 18.2211 7.48352 18.0296 7.25 17.7875C7.00107 17.5466 6.81113 17.2514 6.695 16.925C6.51189 16.4714 6.41033 15.989 6.395 15.5C6.395 14.75 6.35 14.4725 6.35 12.5C6.35 10.5275 6.35 10.25 6.395 9.5C6.39836 9.01329 6.48721 8.53096 6.6575 8.075C6.78954 7.75843 6.9922 7.47624 7.25 7.25C7.47786 6.99213 7.75947 6.78732 8.075 6.65C8.53216 6.48503 9.014 6.39881 9.5 6.395C10.25 6.395 10.5275 6.35 12.5 6.35C14.4725 6.35 14.75 6.35 15.5 6.395C15.9761 6.40046 16.4478 6.48668 16.895 6.65C17.2358 6.77649 17.5417 6.98214 17.7875 7.25C18.0333 7.48038 18.2253 7.76205 18.35 8.075C18.5167 8.5317 18.603 9.01383 18.605 9.5C18.6425 10.25 18.65 10.5275 18.65 12.5C18.65 14.4725 18.6425 14.75 18.605 15.5ZM12.5 8.6525C11.7394 8.65398 10.9962 8.88089 10.3645 9.30456C9.73276 9.72823 9.24078 10.3297 8.95073 11.0328C8.66067 11.736 8.58554 12.5094 8.73485 13.2552C8.88415 14.001 9.25118 14.6859 9.78956 15.2232C10.3279 15.7606 11.0135 16.1263 11.7596 16.2741C12.5058 16.422 13.279 16.3453 13.9816 16.0539C14.6842 15.7625 15.2847 15.2693 15.7071 14.6368C16.1295 14.0042 16.355 13.2606 16.355 12.5C16.356 11.9938 16.2569 11.4925 16.0634 11.0247C15.87 10.557 15.5859 10.1321 15.2277 9.77454C14.8694 9.41697 14.444 9.13376 13.9759 8.9412C13.5077 8.74864 13.0062 8.65052 12.5 8.6525ZM12.5 14.9975C12.006 14.9975 11.5232 14.851 11.1125 14.5766C10.7018 14.3022 10.3816 13.9121 10.1926 13.4558C10.0036 12.9994 9.95412 12.4972 10.0505 12.0128C10.1469 11.5283 10.3847 11.0833 10.734 10.734C11.0833 10.3847 11.5283 10.1469 12.0128 10.0505C12.4972 9.95412 12.9994 10.0036 13.4558 10.1926C13.9121 10.3816 14.3022 10.7018 14.5766 11.1125C14.851 11.5232 14.9975 12.006 14.9975 12.5C14.9975 12.828 14.9329 13.1527 14.8074 13.4558C14.6819 13.7588 14.4979 14.0341 14.266 14.266C14.0341 14.4979 13.7588 14.6819 13.4558 14.8074C13.1527 14.9329 12.828 14.9975 12.5 14.9975Z" fill="white"/>
</svg>
