<svg width="25" height="25" viewBox="0 0 25 25" fill="none" xmlns="http://www.w3.org/2000/svg">
<path d="M19.8506 9.37351C19.8506 9.37351 19.7041 8.29519 19.2529 7.82172C18.6817 7.19856 18.0429 7.1955 17.75 7.15884C15.6524 7 12.5029 7 12.5029 7H12.4971C12.4971 7 9.34765 7 7.25 7.15884C6.95703 7.1955 6.31836 7.19856 5.74707 7.82172C5.2959 8.29519 5.15234 9.37351 5.15234 9.37351C5.15234 9.37351 5 10.6412 5 11.9059V13.0911C5 14.3557 5.14941 15.6234 5.14941 15.6234C5.14941 15.6234 5.2959 16.7017 5.74414 17.1752C6.31543 17.7984 7.06543 17.777 7.39942 17.8442C8.60058 17.9633 12.5 18 12.5 18C12.5 18 15.6524 17.9939 17.75 17.8381C18.0429 17.8014 18.6817 17.7984 19.2529 17.1752C19.7041 16.7017 19.8506 15.6234 19.8506 15.6234C19.8506 15.6234 20 14.3588 20 13.0911V11.9059C20 10.6412 19.8506 9.37351 19.8506 9.37351ZM10.9502 14.5298V10.1341L15.0019 12.3396L10.9502 14.5298Z" fill="white"/>
</svg>
